<svg xmlns="http://www.w3.org/2000/svg" viewBox="0 0 117.95 34.02"><title>chip_logo</title><g id="レイヤー_2" data-name="レイヤー 2"><g id="レイヤー_1-2" data-name="レイヤー 1"><g id="Group_370" data-name="Group 370"><g id="logo"><g id="Group_379" data-name="Group 379"><path id="Path_1301" data-name="Path 1301" d="M8,2.58A17,17,0,1,0,31.43,8h0A17,17,0,0,0,8,2.58ZM28.33,13.75a11.77,11.77,0,1,1-3.42-5.48l-2.35,5.27Z"/></g><g id="Group_380" data-name="Group 380"><circle id="Ellipse_149" data-name="Ellipse 149" cx="17.01" cy="17.01" r="6.54"/></g></g><path id="Path_1364" data-name="Path 1364" d="M53.66,27.1a11.21,11.21,0,0,0,8.19-3.57l-3.72-3.3a5.82,5.82,0,0,1-4.47,2.22,6,6,0,0,1,0-12,5.76,5.76,0,0,1,4.44,2.22l3.75-3.33a11.33,11.33,0,0,0-8.19-3.54c-6,0-11.07,4.86-11.07,10.65A11,11,0,0,0,53.66,27.1Zm25.8-21v7.8H71V6.13H65.9V26.74H71V18.52h8.43v8.22h5.13V6.13ZM90,26.74h5.13V6.13H90Zm10.53,0h5.13V20.29h4.44c4.53,0,7.83-2.91,7.83-7.08s-3.3-7.08-7.83-7.08h-9.57Zm5.13-11.13v-4.8h4c1.77,0,3,1,3,2.4s-1.26,2.4-3,2.4Z"/></g></g></g></svg>