<svg xmlns="http://www.w3.org/2000/svg" width="300" height="52" viewBox="0 0 300 52">
  <g fill="#1B1B19" fill-rule="evenodd">
    <polygon points="50.347 4.993 50.347 50.524 59.629 50.524 59.629 4.993"/>
    <polygon points="95.843 4.993 95.843 35.396 77.189 4.993 68.239 4.993 68.239 50.523 76.786 50.523 76.786 20.832 95.159 50.524 104.39 50.524 104.39 4.993"/>
    <path fill-rule="nonzero" d="M137.030824,4.99306519 L127.258073,4.99306519 L109.431345,50.5243734 L119.23485,50.5243734 L123.012394,40.1834564 L141.30384,40.1834564 L145.300075,50.5243734 L155.353024,50.5243734 L137.030824,4.99306519 Z M125.851959,32.5076543 L132.033395,15.6093318 L138.341261,32.5076543 L125.851959,32.5076543 Z"/>
    <path d="M189.396055,33.6641844 C188.629418,36.991526 187.361169,39.4304834 185.591307,40.9810562 C183.821445,42.531629 181.712624,43.3057846 179.264846,43.3035228 C175.938961,43.3035228 173.235827,42.0848924 171.155442,39.6476314 C169.075058,37.2103706 168.03771,33.1173558 168.043397,27.368587 C168.043397,21.9568501 169.09667,18.0419645 171.203215,15.6239304 C173.30976,13.2058962 176.058962,11.9963136 179.450818,11.9951826 C181.903146,11.9951826 183.986943,12.6777288 185.702207,14.042821 C187.417472,15.4079133 188.545247,17.2683746 189.085533,19.6242049 L198.215223,17.4493313 C197.177875,13.8143632 195.619009,11.0248022 193.538624,9.08064849 C190.04781,5.80080795 185.507705,4.16088766 179.918307,4.16088766 C173.517912,4.16088766 168.35335,6.25319975 164.42462,10.4378239 C160.495891,14.622448 158.530957,20.4967555 158.52982,28.0607464 C158.52982,35.2130608 160.484516,40.8509936 164.39391,44.9745448 C168.303303,49.098096 173.290424,51.1576097 179.355273,51.153086 C184.261066,51.153086 188.310365,49.9502891 191.503169,47.5446956 C194.695973,45.1391025 196.976547,41.4549367 198.344892,36.4921986 L189.396055,33.6641844 Z"/>
    <polygon points="205.964 4.993 205.964 50.524 215.246 50.524 215.246 4.993"/>
    <polygon points="220.943 4.993 220.943 12.694 234.534 12.694 234.534 50.524 243.78 50.524 243.78 12.696 257.339 12.696 257.339 4.993"/>
    <path fill-rule="nonzero" d="M281.409519,4.99306519 L271.639931,4.99306519 L253.814147,50.5243734 L263.616193,50.5243734 L267.393175,40.1834564 L285.692149,40.1834564 L289.682665,50.5243734 L299.735826,50.5243734 L281.409519,4.99306519 Z M270.23915,32.5076543 L276.417958,15.6093318 L282.719762,32.5076543 L270.23915,32.5076543 Z"/>
    <path d="M36.3182286,26.4871636 C38.3595563,23.6283754 39.3149507,20.4527821 39.3149507,16.8962684 C39.3149507,12.2554518 37.6576726,8.32178933 34.3412244,4.9519644 C31.0304519,1.6537977 27.0140119,0 22.3637954,0 L0,0 L4.39481405,7.55617718 L5.3502084,8.50847804 L22.3656873,8.50847804 C24.6611562,8.50847804 26.6356379,9.33380542 28.2891322,10.9844602 C30.0126258,12.6420294 30.8469405,14.6069749 30.8469405,16.9000399 C30.8920829,19.1802478 29.9661493,21.372819 28.2985916,22.9344215 C26.6413135,24.5863334 24.6668318,25.4116609 22.3751466,25.4104037 L14.7944235,25.3462884 L29.5642526,50.8132644 L39.3168425,50.8132644 L28.860477,32.5837748 C31.8584603,31.3781556 34.3443775,29.3459519 36.3182286,26.4871636 Z"/>
  </g>
</svg>
