<svg xmlns="http://www.w3.org/2000/svg" width="457.348" height="68.456" viewBox="0 0 457.348 68.456">
  <path id="Path_3136" data-name="Path 3136" d="M-210.7-35.862h3.182q4.988,0,7.654-2.064A7.057,7.057,0,0,0-197.2-43.86a7.057,7.057,0,0,0-2.666-5.934q-2.666-2.064-7.654-2.064H-210.7ZM-173.634,0h-20.984L-210.7-24.94V0h-16.856V-64.844h26.23a25.745,25.745,0,0,1,9.46,1.591A18.3,18.3,0,0,1-185.2-58.91a18.311,18.311,0,0,1,3.956,6.364,22.179,22.179,0,0,1,1.333,7.74q0,7.4-3.569,12t-10.535,6.235Zm23.908-64.844V0h-16.856V-64.844ZM-136.138,0V-64.844h16.856L-88.15-25.2V-64.844h16.77V0H-88.15l-31.132-39.646V0ZM-22.36-24.08l-7.568-21.586L-37.5-24.08Zm4.472,12.814h-24.08L-45.838,0H-63.812L-39.13-64.844h18.4L3.956,0H-14.018Zm73.53-31.906Q49.794-50.31,41.194-50.31a17.673,17.673,0,0,0-7.009,1.376,17.056,17.056,0,0,0-5.547,3.741,17.225,17.225,0,0,0-3.655,5.633,18.492,18.492,0,0,0-1.333,7.052,18.722,18.722,0,0,0,1.333,7.138,17.364,17.364,0,0,0,3.7,5.676,17.334,17.334,0,0,0,5.547,3.784,17.146,17.146,0,0,0,6.88,1.376q8.084,0,14.534-6.88V-1.462l-1.72.6A49.766,49.766,0,0,1,46.7,1.161a35.006,35.006,0,0,1-6.622.645A33.387,33.387,0,0,1,27.219-.731,33.618,33.618,0,0,1,16.383-7.869,35.511,35.511,0,0,1,8.858-18.791a33.31,33.31,0,0,1-2.838-13.8,33.151,33.151,0,0,1,2.8-13.717A34.14,34.14,0,0,1,16.3-57.061a34.217,34.217,0,0,1,10.879-7.052A33.924,33.924,0,0,1,40.162-66.65a35.567,35.567,0,0,1,7.611.817A46.168,46.168,0,0,1,55.642-63.3Zm27.52-21.672V0H66.306V-64.844Zm38.184,14.276V0H104.49V-50.568H90.644V-64.844h44.548v14.276ZM174.924-24.08l-7.568-21.586L159.788-24.08ZM179.4-11.266h-24.08L151.446,0H133.472l24.682-64.844h18.4L201.24,0H183.266Zm30.272,3.01a10.031,10.031,0,0,1,.774-3.913,9.936,9.936,0,0,1,2.15-3.225,9.936,9.936,0,0,1,3.225-2.15,10.031,10.031,0,0,1,3.913-.774,10.031,10.031,0,0,1,3.913.774,9.936,9.936,0,0,1,3.225,2.15,9.936,9.936,0,0,1,2.15,3.225,10.031,10.031,0,0,1,.774,3.913,10.031,10.031,0,0,1-.774,3.913,9.936,9.936,0,0,1-2.15,3.225,9.936,9.936,0,0,1-3.225,2.15,10.031,10.031,0,0,1-3.913.774,10.031,10.031,0,0,1-3.913-.774,9.936,9.936,0,0,1-3.225-2.15,9.936,9.936,0,0,1-2.15-3.225A10.031,10.031,0,0,1,209.668-8.256Z" transform="translate(227.556 66.65)"/>
</svg>
