<svg xmlns="http://www.w3.org/2000/svg" xmlns:xlink="http://www.w3.org/1999/xlink" width="652.75" height="180" viewBox="0 0 652.75 180">
  <defs>
    <clipPath id="clip-path">
      <path id="Exclusion_10" data-name="Exclusion 10" d="M90,180a91.523,91.523,0,0,1-9.2-.465,90.253,90.253,0,0,1-8.936-1.364c-2.9-.594-5.8-1.34-8.625-2.218-2.793-.869-5.575-1.887-8.269-3.027-2.67-1.129-5.317-2.4-7.867-3.79-2.531-1.375-5.028-2.892-7.42-4.508s-4.711-3.351-6.928-5.181-4.362-3.779-6.391-5.809-3.983-4.179-5.809-6.391-3.573-4.548-5.181-6.928-3.133-4.889-4.508-7.42c-1.385-2.55-2.661-5.2-3.79-7.867-1.139-2.694-2.158-5.476-3.026-8.269-.878-2.823-1.624-5.725-2.218-8.625A90.082,90.082,0,0,1,.465,99.2a91.344,91.344,0,0,1,0-18.4,90.089,90.089,0,0,1,1.364-8.936c.593-2.9,1.339-5.8,2.218-8.625.869-2.793,1.887-5.575,3.026-8.269,1.129-2.669,2.4-5.316,3.79-7.867,1.376-2.533,2.892-5.029,4.508-7.421s3.351-4.711,5.181-6.929,3.78-4.363,5.809-6.391,4.179-3.983,6.391-5.809,4.549-3.573,6.928-5.181,4.888-3.132,7.42-4.508c2.551-1.386,5.2-2.661,7.867-3.79,2.7-1.14,5.478-2.159,8.269-3.026,2.822-.878,5.724-1.624,8.625-2.218A90.219,90.219,0,0,1,80.8.465a91.344,91.344,0,0,1,18.4,0,90.226,90.226,0,0,1,8.936,1.364c2.9.594,5.8,1.34,8.625,2.218,2.791.868,5.573,1.886,8.269,3.026,2.669,1.129,5.316,2.4,7.867,3.79,2.533,1.376,5.03,2.892,7.42,4.508s4.71,3.35,6.929,5.181,4.362,3.78,6.391,5.809,3.982,4.178,5.809,6.391,3.573,4.549,5.181,6.929,3.132,4.888,4.508,7.421c1.385,2.549,2.66,5.2,3.79,7.867,1.14,2.7,2.158,5.478,3.027,8.269.878,2.823,1.624,5.725,2.218,8.625a90.248,90.248,0,0,1,1.364,8.936,91.379,91.379,0,0,1,0,18.4,90.249,90.249,0,0,1-1.364,8.936c-.594,2.9-1.34,5.8-2.218,8.625-.868,2.791-1.887,5.573-3.027,8.269-1.13,2.672-2.406,5.319-3.79,7.867-1.375,2.531-2.892,5.028-4.508,7.42s-3.351,4.711-5.181,6.928-3.779,4.362-5.809,6.391-4.18,3.983-6.391,5.809-4.55,3.575-6.929,5.181-4.889,3.133-7.42,4.508c-2.552,1.386-5.2,2.661-7.867,3.79-2.694,1.139-5.475,2.158-8.269,3.027-2.823.878-5.725,1.624-8.625,2.218a90.252,90.252,0,0,1-8.936,1.364A91.527,91.527,0,0,1,90,180ZM90,30a60.84,60.84,0,0,0-6.134.31,59.868,59.868,0,0,0-5.958.909c-1.934.4-3.869.893-5.749,1.478-1.865.58-3.72,1.259-5.513,2.018s-3.546,1.6-5.245,2.526-3.356,1.929-4.947,3.006A60.3,60.3,0,0,0,40.248,56.454c-1.074,1.589-2.086,3.253-3.006,4.947s-1.774,3.468-2.526,5.245c-.76,1.794-1.439,3.648-2.018,5.512-.585,1.88-1.082,3.814-1.479,5.75a59.949,59.949,0,0,0-.909,5.957,60.947,60.947,0,0,0,0,12.269,59.934,59.934,0,0,0,.909,5.957,59.305,59.305,0,0,0,1.479,5.75c.58,1.864,1.258,3.719,2.018,5.513.752,1.778,1.6,3.543,2.526,5.244s1.928,3.352,3.006,4.947a60.325,60.325,0,0,0,16.206,16.207c1.6,1.081,3.267,2.092,4.947,3,1.706.927,3.471,1.777,5.245,2.527,1.8.762,3.654,1.44,5.513,2.018,1.878.584,3.812,1.082,5.749,1.478A60.276,60.276,0,0,0,90,150a60.89,60.89,0,0,0,6.136-.31,60.117,60.117,0,0,0,5.958-.909c1.931-.4,3.865-.892,5.75-1.478,1.866-.58,3.721-1.259,5.513-2.018s3.545-1.6,5.244-2.527c1.678-.911,3.343-1.922,4.948-3a60.447,60.447,0,0,0,8.88-7.327l-21.214-21.213a30.043,30.043,0,0,1-9.536,6.429,29.832,29.832,0,0,1-5.632,1.748,30.279,30.279,0,0,1-12.092,0,29.84,29.84,0,0,1-10.727-4.513,30.079,30.079,0,0,1-10.869-13.2,30,30,0,0,1,44.416-36.554,30.245,30.245,0,0,1,4.44,3.664l21.213-21.213a60.449,60.449,0,0,0-8.88-7.327c-1.591-1.075-3.256-2.086-4.948-3s-3.462-1.773-5.244-2.526-3.649-1.438-5.513-2.018c-1.881-.585-3.815-1.082-5.75-1.478a59.937,59.937,0,0,0-5.958-.909A60.854,60.854,0,0,0,90,30ZM136.81,73.19a16.932,16.932,0,0,0-3.388.341,16.717,16.717,0,0,0-6.011,2.529,16.869,16.869,0,0,0-6.091,7.4,16.725,16.725,0,0,0-.979,3.155,16.971,16.971,0,0,0,0,6.776,16.8,16.8,0,0,0,4.582,8.5,16.831,16.831,0,0,0,5.343,3.6,16.74,16.74,0,0,0,3.155.979,16.971,16.971,0,0,0,6.776,0,16.714,16.714,0,0,0,6.011-2.529,16.863,16.863,0,0,0,6.091-7.4,16.739,16.739,0,0,0,.979-3.155,16.979,16.979,0,0,0,0-6.776A16.708,16.708,0,0,0,150.75,80.6a16.858,16.858,0,0,0-7.4-6.091,16.724,16.724,0,0,0-3.155-.979A16.937,16.937,0,0,0,136.81,73.19Z"/>
    </clipPath>
  </defs>
  <g id="Group_237" data-name="Group 237" transform="translate(-447 -285)">
    <g id="Mask_Group_33" data-name="Mask Group 33" transform="translate(447 285)" clip-path="url(#clip-path)">
      <g id="Group_236" data-name="Group 236" transform="translate(-51.267 -42.902)">
        <rect id="Rectangle_467" data-name="Rectangle 467" width="261.873" height="261.873" transform="translate(10.437 2.072)" fill="#912eaa"/>
        <path id="Path_3084" data-name="Path 3084" d="M92.239-49.246c10.08.525,30.985,8.179,48.264,27.607,19.637,22.08,38.044,55.082,41.09,63.253,10.337,27.726,15.75,52.595-10.316,55.146s1.714-17.509-5.633-32.671S143.772,43.561,140.5,34.906s12.065-1.681,12.065-5.435,4.565-1.593-12.065-9.58S110.735,9.147,86.049-2.475s-38.078-26.017-38.078-35.1S70.747-50.365,92.239-49.246Z" transform="translate(67.507 64.579)" fill="#4838ad"/>
        <ellipse id="Ellipse_107" data-name="Ellipse 107" cx="35.02" cy="15.665" rx="35.02" ry="15.665" transform="matrix(0.899, 0.438, -0.438, 0.899, 144.483, 13.439)" fill="#8f2fa9"/>
        <path id="Path_3085" data-name="Path 3085" d="M29.03,0c13.192,0,29.4,6.915,29.4,12.778s-16.206,8.454-29.4,8.454S0,15.385,0,9.522,15.838,0,29.03,0Z" transform="matrix(0.899, 0.438, -0.438, 0.899, 146.747, 21.38)" fill="#cc349c"/>
        <path id="Path_3083" data-name="Path 3083" d="M-52.784-401.641H16.8s12.39,62.818,40.562,76.922,79,31.49,79,31.49,50.22,17.691,39.519,54.653c-4.8,16.6-5.48,25.917-17.943,28.909s-8.284-3.812-45.25.956S-4.677-174.377-27.485-162.083s-23.868,25.291-23.868,25.291V-171.02s99.511-26.449,116.608-56.592c4.879-8.6,4.449-19.2,0-24.62s-11.5-9.575-35.592-8.3S-52.784-181.5-52.784-181.5Z" transform="translate(61.211 401.641)" fill="#c9369c"/>
        <path id="Path_3086" data-name="Path 3086" d="M25.628.107C37.7.8,49.444,5.5,48.887,9.545S32.3,16.306,23.4,16.306-.617,11.393.02,6.764,13.558-.586,25.628.107Z" transform="matrix(0.899, 0.438, -0.438, 0.899, 149.282, 25.023)" fill="#e44574"/>
        <path id="Path_3076" data-name="Path 3076" d="M-1407.467-96.731c3.844-9.032,56.668,6.077,56.668,6.077s34.044,12.451,34.044,30.409c0,8.925.861,32.6-7.7,38.306-15.2,10.138-29.877-4.663-78.6,7.608-26.808,6.752-27.206,11.538-54.973,22.517s-51.742,15.763-62.493,23.685a171.511,171.511,0,0,0-18.6,15.925V26.285c32.069-8.962,59.918-14.728,88.838-30.6s65.512-32.46,64.913-48.848S-1411.312-87.7-1407.467-96.731Z" transform="translate(1549.057 206.42)" fill="#e14674"/>
        <path id="Path_3064" data-name="Path 3064" d="M13.656-12.969C22.732-19.144,62.5-11.411,66.891,3.963,78.325,44,55.531,47.486,55.531,47.486s-47.216.222-49.023-3.66S20.657,29.359,21.563,16.217,4.581-6.794,13.656-12.969Z" transform="translate(159.981 135.679)" fill="#e4764e"/>
        <path id="Path_3063" data-name="Path 3063" d="M70.566.65C70.894-3.512,84.1-10.26,99.554,3.79c6.611,6.01,5.574,18.885,5.574,24.195,0,4.192-3.928,13.545-9.731,15.712-10.766,4.018-26.865-1.668-27.92-4.686-1.62-4.637,6.271-11.849,5.653-20.507S70.238,4.811,70.566.65Z" transform="translate(121.275 133.89)" fill="#e2ad35"/>
        <path id="Path_3087" data-name="Path 3087" d="M18.347.074C26.988.552,35.4,3.784,35,6.573s-11.874,4.655-18.247,4.655S-.442,7.845.014,4.658,9.706-.4,18.347.074Z" transform="matrix(0.899, 0.438, -0.438, 0.899, 153.813, 30.058)" fill="#e4ae35"/>
        <path id="Path_3068" data-name="Path 3068" d="M0-198.525S3.338-223.1,21.26-227.112s35.97,5.335,52.536,19.122,27.522,30.782,18.875,48.119S34.043-106.5,15.381-110.6,3.225-103.45,0-198.525Z" transform="translate(0 265.119)" fill="#de4774"/>
        <path id="Path_3067" data-name="Path 3067" d="M0-199.361s20.234-37.6,40.772-28.112c8.031,3.711,22.836,21.635,14.37,33.629C29.524-157.548,0-161.169,0-161.169Z" transform="translate(0 281.879)" fill="#e7764e"/>
        <path id="Path_3066" data-name="Path 3066" d="M40.435,9.63C57.859,3.734,69.673-1.2,69.94.257S65.291,5.669,41.5,15.446,2.136,25.242.116,23.56,23.011,15.525,40.435,9.63Z" transform="matrix(0.999, 0.035, -0.035, 0.999, 3.58, 214.271)" fill="#e7764e"/>
        <path id="Path_3065" data-name="Path 3065" d="M17.512,7C27.66,3.595,39.361-.541,40.734.058S33.153,5.993,23.006,9.4,1.518,14.279.145,13.68,7.365,10.405,17.512,7Z" transform="matrix(0.999, 0.035, -0.035, 0.999, 10.349, 224.144)" fill="#e4ae35"/>
        <path id="Path_3073" data-name="Path 3073" d="M-579.822-17.093S-512.2,19.96-543.255,24.556c-13.383,1.981-59.278,2.863-99.47-2.953S-708.66,16.776-705.32,6.778-663.1-14.96-629.363-18.387-579.822-17.093-579.822-17.093Z" transform="translate(802.888 236.842)" fill="#4032a5"/>
        <path id="Path_3072" data-name="Path 3072" d="M-330.861,3.084c21.753-.756,30.573,10.379,30.573,10.379s-2.646,8.433-18.53,8.433-71.918-5.431-74.928-10.134S-352.615,3.841-330.861,3.084Z" transform="translate(536.576 229.395)" fill="#3f6bd0"/>
        <path id="Path_3075" data-name="Path 3075" d="M0-69.607a153.265,153.265,0,0,0,30.637-1.619c17.252-2.812,30.421-9.945,34.938-8.555,2.308.71-13.961,11.741-31.337,18.5A163.425,163.425,0,0,1,0-52.648Z" transform="translate(10.357 276.798)" fill="#402fa5"/>
        <path id="Path_3074" data-name="Path 3074" d="M0,0S19.3.869,11.636,4.235,0,7.9,0,7.9Z" transform="translate(10.357 214.052)" fill="#3c6ad0"/>
      </g>
    </g>
    <path id="Path_3135" data-name="Path 3135" d="M-91.586-16.828c0-21.849,8.74-33.75,24.081-33.75,13.853,0,22.128,10.041,22.221,23.895H-15.9V-30.31c0-27.428-21.663-45.651-51.88-45.651-35.331,0-55.135,22.779-55.135,59.133V-3.44c0,36.168,19.8,58.947,55.135,58.947,30.124,0,51.88-18.037,51.88-44.907V6.88h-29.38c-.093,13.389-8.368,23.244-22.221,23.244-15.341,0-24.081-11.808-24.081-33.378ZM114.241,53.182V-73.73H83.466v50.114H36.885V-73.73H6.11V53.182H36.885V1.3H83.466v51.88Zm58.46,0V-73.73H141.926V53.182ZM200.386-73.73V53.182h30.682V13.947h22.593c29.287,0,44.814-19.246,44.814-43.606,0-23.988-15.248-44.07-44.442-44.07Zm30.589,23.616h15.9c12.552,0,20.455,7.252,20.455,20.455,0,14.876-9.2,20.455-23.988,20.455H230.975Z" transform="translate(801.274 385.829)" fill="#111"/>
  </g>
</svg>
