<svg xmlns="http://www.w3.org/2000/svg" width="155.64" height="22.752" viewBox="0 0 155.64 22.752">
  <g id="RINACITA" transform="translate(-223.176 -186.632)">
    <path id="Path_1" data-name="Path 1" d="M20.768,0,15.36-7.68a7.154,7.154,0,0,0,4.992-6.88c0-4.352-3.52-7.424-8.288-7.424H2.176V0h4.7V-7.136h3.488L15.392,0ZM6.88-17.664h4.672c2.336,0,3.936,1.216,3.936,3.1s-1.6,3.1-3.936,3.1H6.88Z" transform="translate(221 209)"/>
    <path id="Path_8" data-name="Path 8" d="M2.24,0H6.976V-21.984H2.24Z" transform="translate(244 209)"/>
    <path id="Path_7" data-name="Path 7" d="M2.368,0h4.7V-14.208L17.664,0H22.4V-21.984H17.664V-7.776L7.072-21.984h-4.7Z" transform="translate(254 209)"/>
    <path id="Path_6" data-name="Path 6" d="M18.3,0h5.312l-8.96-21.984H9.376L.416,0H5.7L7.1-3.456H16.9ZM8.736-7.456,12-15.488l3.264,8.032Z" transform="translate(279.5 209)"/>
    <path id="Path_5" data-name="Path 5" d="M12.992.384A11.893,11.893,0,0,0,21.536-3.3L18.112-6.368A6.848,6.848,0,0,1,12.992-3.9a7.075,7.075,0,0,1-6.816-7.1,7.068,7.068,0,0,1,6.816-7.072,6.848,6.848,0,0,1,5.12,2.464l3.424-3.072a11.767,11.767,0,0,0-8.544-3.68,11.684,11.684,0,0,0-11.68,11.36A11.711,11.711,0,0,0,12.992.384Z" transform="translate(303.2 209)"/>
    <path id="Path_4" data-name="Path 4" d="M2.24,0H6.976V-21.984H2.24Z" transform="translate(326.5 209)"/>
    <path id="Path_3" data-name="Path 3" d="M7.872,0h4.736V-17.728h6.848v-4.256H1.024v4.256H7.872Z" transform="translate(336.2 209)"/>
    <path id="Path_2" data-name="Path 2" d="M18.3,0h5.312l-8.96-21.984H9.376L.416,0H5.7L7.1-3.456H16.9ZM8.736-7.456,12-15.488l3.264,8.032Z" transform="translate(355.2 209)"/>
  </g>
</svg>
